<svg width="40" height="40" viewBox="0 0 40 40" fill="none" xmlns="http://www.w3.org/2000/svg">
<g id="amp_stories">
<mask id="mask0_501_148" style="mask-type:alpha" maskUnits="userSpaceOnUse" x="0" y="0" width="40" height="40">
<rect id="Bounding box" width="40" height="40" fill="#D9D9D9"/>
</mask>
<g mask="url(#mask0_501_148)">
<path id="amp_stories_2" d="M13.3333 33.3334C12.8611 33.3334 12.4653 33.1737 12.1458 32.8542C11.8264 32.5348 11.6667 32.139 11.6667 31.6667V8.33341C11.6667 7.86119 11.8264 7.46536 12.1458 7.14591C12.4653 6.82647 12.8611 6.66675 13.3333 6.66675H26.6667C27.1389 6.66675 27.5347 6.82647 27.8542 7.14591C28.1736 7.46536 28.3333 7.86119 28.3333 8.33341V31.6667C28.3333 32.139 28.1736 32.5348 27.8542 32.8542C27.5347 33.1737 27.1389 33.3334 26.6667 33.3334H13.3333ZM5 28.3334V11.6251C5 11.1529 5.15972 10.764 5.47917 10.4584C5.79861 10.1529 6.19444 10.0001 6.66667 10.0001C7.13889 10.0001 7.53472 10.1598 7.85417 10.4792C8.17361 10.7987 8.33333 11.1945 8.33333 11.6667V28.3751C8.33333 28.8473 8.17361 29.2362 7.85417 29.5417C7.53472 29.8473 7.13889 30.0001 6.66667 30.0001C6.19444 30.0001 5.79861 29.8404 5.47917 29.5209C5.15972 29.2015 5 28.8056 5 28.3334ZM31.6667 28.3334V11.6251C31.6667 11.1529 31.8264 10.764 32.1458 10.4584C32.4653 10.1529 32.8611 10.0001 33.3333 10.0001C33.8056 10.0001 34.2014 10.1598 34.5208 10.4792C34.8403 10.7987 35 11.1945 35 11.6667V28.3751C35 28.8473 34.8403 29.2362 34.5208 29.5417C34.2014 29.8473 33.8056 30.0001 33.3333 30.0001C32.8611 30.0001 32.4653 29.8404 32.1458 29.5209C31.8264 29.2015 31.6667 28.8056 31.6667 28.3334Z" fill="white"/>
</g>
</g>
</svg>
