<svg width="40" height="40" viewBox="0 0 40 40" fill="none" xmlns="http://www.w3.org/2000/svg">
<g id="amp_stories">
<mask id="mask0_940_1446" style="mask-type:alpha" maskUnits="userSpaceOnUse" x="0" y="0" width="40" height="40">
<rect id="Bounding box" width="40" height="40" fill="#D9D9D9"/>
</mask>
<g mask="url(#mask0_940_1446)">
<path id="amp_stories_2" d="M13.9997 32.4999C13.5747 32.4999 13.2185 32.3555 12.9311 32.0668C12.6437 31.7781 12.5 31.4203 12.5 30.9935V9.00642C12.5 8.57961 12.6437 8.22185 12.9313 7.93313C13.2188 7.64438 13.575 7.5 14 7.5H26.0002C26.4252 7.5 26.7814 7.64438 27.0688 7.93313C27.3562 8.22185 27.4999 8.57961 27.4999 9.00642V30.9935C27.4999 31.4203 27.3561 31.7781 27.0686 32.0668C26.7811 32.3555 26.4249 32.4999 25.9999 32.4999H13.9997ZM6.34619 27.9166V12.0417C6.34619 11.6976 6.46604 11.4103 6.70573 11.1795C6.9454 10.9487 7.2424 10.8333 7.59673 10.8333C7.95104 10.8333 8.24784 10.9531 8.48715 11.1927C8.72648 11.4323 8.84615 11.7292 8.84615 12.0833V27.9583C8.84615 28.3023 8.7263 28.5897 8.48661 28.8204C8.24691 29.0512 7.94991 29.1666 7.59561 29.1666C7.24128 29.1666 6.94446 29.0468 6.70515 28.8072C6.46584 28.5676 6.34619 28.2708 6.34619 27.9166ZM31.1537 27.9166V12.0417C31.1537 11.6976 31.2736 11.4103 31.5133 11.1795C31.753 10.9487 32.05 10.8333 32.4043 10.8333C32.7586 10.8333 33.0554 10.9531 33.2947 11.1927C33.534 11.4323 33.6537 11.7292 33.6537 12.0833V27.9583C33.6537 28.3023 33.5338 28.5897 33.2941 28.8204C33.0545 29.0512 32.7575 29.1666 32.4032 29.1666C32.0488 29.1666 31.752 29.0468 31.5127 28.8072C31.2734 28.5676 31.1537 28.2708 31.1537 27.9166ZM14.9999 30H24.9999V9.99996H14.9999V30Z" fill="white"/>
</g>
</g>
</svg>
