<svg width="40" height="40" viewBox="0 0 40 40" fill="none" xmlns="http://www.w3.org/2000/svg">
<g id="assistant_navigation">
<mask id="mask0_501_92" style="mask-type:alpha" maskUnits="userSpaceOnUse" x="0" y="0" width="40" height="40">
<rect id="Bounding box" width="40" height="40" fill="#D9D9D9"/>
</mask>
<g mask="url(#mask0_501_92)">
<path id="assistant_navigation_2" d="M20.0028 35.8333C17.8129 35.8333 15.7546 35.4178 13.8277 34.5867C11.9007 33.7556 10.2246 32.6276 8.79925 31.2029C7.37386 29.7782 6.24543 28.1028 5.41396 26.1767C4.58248 24.2507 4.16675 22.1927 4.16675 20.0028C4.16675 17.8129 4.5823 15.7546 5.41342 13.8277C6.24453 11.9007 7.37244 10.2246 8.79717 8.79925C10.2219 7.37386 11.8973 6.24543 13.8234 5.41396C15.7494 4.58249 17.8074 4.16675 19.9972 4.16675C22.1871 4.16675 24.2455 4.58231 26.1724 5.41342C28.0993 6.24453 29.7755 7.37244 31.2008 8.79717C32.6262 10.2219 33.7547 11.8973 34.5861 13.8234C35.4176 15.7494 35.8333 17.8074 35.8333 19.9973C35.8333 22.1871 35.4178 24.2455 34.5867 26.1724C33.7556 28.0993 32.6276 29.7755 31.2029 31.2008C29.7782 32.6262 28.1028 33.7547 26.1767 34.5861C24.2507 35.4176 22.1927 35.8333 20.0028 35.8333ZM20 33.3334C23.7223 33.3334 26.875 32.0417 29.4584 29.4584C32.0417 26.875 33.3334 23.7223 33.3334 20C33.3334 16.2778 32.0417 13.125 29.4584 10.5417C26.875 7.95837 23.7223 6.66671 20 6.66671C16.2778 6.66671 13.125 7.95837 10.5417 10.5417C7.95837 13.125 6.66671 16.2778 6.66671 20C6.66671 23.7223 7.95837 26.875 10.5417 29.4584C13.125 32.0417 16.2778 33.3334 20 33.3334ZM14.9969 27.0513L19.6571 24.9776C19.7746 24.922 19.8932 24.8943 20.0129 24.8943C20.1325 24.8943 20.2511 24.922 20.3686 24.9776L25.0032 27.0513C25.3493 27.2073 25.6592 27.1554 25.9327 26.8958C26.2062 26.6362 26.265 26.3333 26.109 25.9872L20.7789 13.0001C20.63 12.6432 20.3695 12.4648 19.9974 12.4648C19.6252 12.4648 19.3665 12.6432 19.2212 13.0001L13.8911 25.9872C13.7351 26.3333 13.7939 26.6362 14.0674 26.8958C14.3409 27.1554 14.6507 27.2073 14.9969 27.0513Z" fill="white"/>
</g>
</g>
</svg>
