<svg width="40" height="40" viewBox="0 0 40 40" fill="none" xmlns="http://www.w3.org/2000/svg">
<g id="curtains">
<mask id="mask0_940_1453" style="mask-type:alpha" maskUnits="userSpaceOnUse" x="0" y="0" width="40" height="40">
<rect id="Bounding box" width="40" height="40" fill="#D9D9D9"/>
</mask>
<g mask="url(#mask0_940_1453)">
<path id="curtains_2" d="M10 31.6668H16.984C16.7618 29.6155 16.0855 27.5541 14.9552 25.4825C13.8248 23.4109 12.1731 22.0781 10 21.4841V31.6668ZM10 8.84633V18.5162C12.1731 17.9222 13.8248 16.5894 14.9552 14.5178C16.0855 12.4462 16.7618 10.3847 16.984 8.33346H10.5129C10.3633 8.33346 10.2405 8.38154 10.1443 8.4777C10.0481 8.57387 10 8.69675 10 8.84633ZM12.7788 20.0001C14.828 21.1005 16.4092 22.7555 17.5224 24.9649C18.6357 27.1743 19.2949 29.4082 19.5 31.6668H20.5001C20.7052 29.4082 21.3644 27.1743 22.4777 24.9649C23.5909 22.7555 25.1721 21.1005 27.2213 20.0001C25.1614 18.8997 23.5749 17.2448 22.4616 15.0354C21.3484 12.826 20.6892 10.592 20.484 8.33346H19.5C19.2949 10.592 18.6357 12.826 17.5224 15.0354C16.4092 17.2448 14.828 18.8997 12.7788 20.0001ZM30 18.5162V8.84633C30 8.69675 29.952 8.57387 29.8558 8.4777C29.7596 8.38154 29.6368 8.33346 29.4872 8.33346H23C23.2222 10.3847 23.8985 12.4462 25.0289 14.5178C26.1592 16.5894 27.8163 17.9222 30 18.5162ZM30 31.6668V21.4841C27.8163 22.0781 26.1662 23.4109 25.0497 25.4825C23.9332 27.5541 23.2639 29.6155 23.0417 31.6668H30ZM5.41675 34.1667C5.06205 34.1667 4.76505 34.0471 4.52575 33.8077C4.28641 33.5684 4.16675 33.2714 4.16675 32.9167C4.16675 32.5621 4.28641 32.2651 4.52575 32.0257C4.76505 31.7864 5.06205 31.6668 5.41675 31.6668H7.50008V8.84633C7.50008 8.01514 7.79443 7.3052 8.38312 6.71654C8.97179 6.12784 9.68172 5.8335 10.5129 5.8335H29.4872C30.3184 5.8335 31.0283 6.12784 31.617 6.71654C32.2057 7.3052 32.5 8.01514 32.5 8.84633V31.6668H34.5833C34.938 31.6668 35.235 31.7864 35.4743 32.0257C35.7137 32.2651 35.8333 32.5621 35.8333 32.9167C35.8333 33.2714 35.7137 33.5684 35.4743 33.8077C35.235 34.0471 34.938 34.1667 34.5833 34.1667H5.41675ZM10 8.84633V8.33346V18.5162V8.84633Z" fill="white"/>
</g>
</g>
</svg>
