<svg width="40" height="40" viewBox="0 0 40 40" fill="none" xmlns="http://www.w3.org/2000/svg">
<g id="curtains">
<mask id="mask0_501_169" style="mask-type:alpha" maskUnits="userSpaceOnUse" x="0" y="0" width="40" height="40">
<rect id="Bounding box" width="40" height="40" fill="#D9D9D9"/>
</mask>
<g mask="url(#mask0_501_169)">
<path id="curtains_2" d="M13.7083 20C15.5971 21.25 17.0555 22.9583 18.0833 25.125C19.111 27.2917 19.7221 29.4722 19.9166 31.6667H20.0833C20.2777 29.4722 20.8888 27.2917 21.9166 25.125C22.9444 22.9583 24.4027 21.25 26.2916 20C24.4027 18.75 22.9444 17.0417 21.9166 14.875C20.8888 12.7083 20.2777 10.5278 20.0833 8.33333H19.9166C19.7221 10.5278 19.111 12.7083 18.0833 14.875C17.0555 17.0417 15.5971 18.75 13.7083 20ZM4.99992 35C4.5277 35 4.13186 34.8403 3.81242 34.5208C3.49297 34.2014 3.33325 33.8056 3.33325 33.3333C3.33325 32.8611 3.49297 32.4653 3.81242 32.1458C4.13186 31.8264 4.5277 31.6667 4.99992 31.6667H6.66659V8.33333C6.66659 7.41667 6.99297 6.63194 7.64575 5.97917C8.29853 5.32639 9.08325 5 9.99992 5H29.9999C30.9166 5 31.7013 5.32639 32.3541 5.97917C33.0069 6.63194 33.3333 7.41667 33.3333 8.33333V31.6667H34.9999C35.4721 31.6667 35.868 31.8264 36.1874 32.1458C36.5069 32.4653 36.6666 32.8611 36.6666 33.3333C36.6666 33.8056 36.5069 34.2014 36.1874 34.5208C35.868 34.8403 35.4721 35 34.9999 35H4.99992Z" fill="white"/>
</g>
</g>
</svg>
