<svg width="40" height="40" viewBox="0 0 40 40" fill="none" xmlns="http://www.w3.org/2000/svg">
<g id="error_med">
<mask id="mask0_501_113" style="mask-type:alpha" maskUnits="userSpaceOnUse" x="0" y="0" width="40" height="40">
<rect id="Bounding box" width="40" height="40" fill="#D9D9D9"/>
</mask>
<g mask="url(#mask0_501_113)">
<path id="error_med_2" d="M15.375 20.0032L17.8558 23.391C18.0118 23.5919 18.2127 23.6923 18.4584 23.6923C18.7041 23.6923 18.9049 23.5919 19.0609 23.391L21.5417 20.0032L23.9808 23.391C24.1368 23.5919 24.3446 23.6923 24.6042 23.6923C24.8638 23.6923 25.0709 23.5893 25.2256 23.3835L28.7051 18.6346C28.9081 18.3419 28.9833 18.0283 28.9308 17.6937C28.8782 17.3592 28.7047 17.0874 28.4103 16.8783C28.1175 16.6646 27.8077 16.5845 27.4808 16.6379C27.1539 16.6913 26.8836 16.8644 26.67 17.1571L24.5834 19.9969L22.1443 16.609C21.9883 16.4082 21.7805 16.3105 21.5209 16.3158C21.2613 16.3211 21.0535 16.4242 20.8975 16.6251L18.4584 19.9969L15.9776 16.609C15.8216 16.4082 15.6208 16.3078 15.375 16.3078C15.1293 16.3078 14.9291 16.4108 14.7745 16.6167L11.295 21.3655C11.092 21.6582 11.0145 21.9707 11.0626 22.3029C11.1106 22.6352 11.281 22.9081 11.5738 23.1218C11.8665 23.3355 12.1802 23.416 12.5147 23.3635C12.8492 23.3109 13.121 23.1374 13.3301 22.843L15.375 20.0032ZM20.0028 35.8333C17.8129 35.8333 15.7546 35.4178 13.8277 34.5867C11.9007 33.7556 10.2246 32.6276 8.79925 31.2029C7.37386 29.7782 6.24543 28.1028 5.41396 26.1767C4.58248 24.2507 4.16675 22.1927 4.16675 20.0028C4.16675 17.8129 4.5823 15.7546 5.41342 13.8277C6.24453 11.9007 7.37244 10.2246 8.79717 8.79925C10.2219 7.37386 11.8973 6.24543 13.8234 5.41396C15.7494 4.58249 17.8074 4.16675 19.9972 4.16675C22.1871 4.16675 24.2455 4.58231 26.1724 5.41342C28.0993 6.24453 29.7755 7.37244 31.2008 8.79717C32.6262 10.2219 33.7547 11.8973 34.5861 13.8234C35.4176 15.7494 35.8333 17.8074 35.8333 19.9973C35.8333 22.1871 35.4178 24.2455 34.5867 26.1724C33.7556 28.0993 32.6276 29.7755 31.2029 31.2008C29.7782 32.6262 28.1028 33.7547 26.1767 34.5861C24.2507 35.4176 22.1927 35.8333 20.0028 35.8333ZM20 33.3334C23.7223 33.3334 26.875 32.0417 29.4584 29.4584C32.0417 26.875 33.3334 23.7223 33.3334 20C33.3334 16.2778 32.0417 13.125 29.4584 10.5417C26.875 7.95837 23.7223 6.66671 20 6.66671C16.2778 6.66671 13.125 7.95837 10.5417 10.5417C7.95837 13.125 6.66671 16.2778 6.66671 20C6.66671 23.7223 7.95837 26.875 10.5417 29.4584C13.125 32.0417 16.2778 33.3334 20 33.3334Z" fill="white"/>
</g>
</g>
</svg>
