<svg width="40" height="40" viewBox="0 0 40 40" fill="none" xmlns="http://www.w3.org/2000/svg">
<g id="error_med">
<mask id="mask0_501_127" style="mask-type:alpha" maskUnits="userSpaceOnUse" x="0" y="0" width="40" height="40">
<rect id="Bounding box" width="40" height="40" fill="#D9D9D9"/>
</mask>
<g mask="url(#mask0_501_127)">
<path id="error_med_2" d="M15.3749 20.7083L17.7916 23.9999C17.9583 24.2221 18.1805 24.3333 18.4583 24.3333C18.736 24.3333 18.9583 24.2221 19.1249 23.9999L21.5416 20.7083L23.9166 23.9999C24.0833 24.2221 24.3124 24.3333 24.6041 24.3333C24.8958 24.3333 25.1249 24.2221 25.2916 23.9999L29.0416 18.8749C29.3194 18.486 29.4235 18.0694 29.3541 17.6249C29.2846 17.1805 29.0555 16.8194 28.6666 16.5416C28.2777 16.2638 27.861 16.1596 27.4166 16.2291C26.9721 16.2985 26.611 16.5277 26.3333 16.9166L24.5833 19.2916L22.2083 15.9999C22.0416 15.7777 21.8124 15.6666 21.5208 15.6666C21.2291 15.6666 20.9999 15.7777 20.8333 15.9999L18.4583 19.2916L16.0416 15.9999C15.8749 15.7777 15.6527 15.6666 15.3749 15.6666C15.0971 15.6666 14.8749 15.7777 14.7083 15.9999L10.9583 21.1249C10.6805 21.5138 10.5763 21.9305 10.6458 22.3749C10.7152 22.8194 10.9444 23.1805 11.3333 23.4583C11.7221 23.736 12.1388 23.8402 12.5833 23.7708C13.0277 23.7013 13.3888 23.4721 13.6666 23.0833L15.3749 20.7083ZM19.9999 36.6666C17.6944 36.6666 15.5277 36.2291 13.4999 35.3541C11.4721 34.4791 9.70825 33.2916 8.20825 31.7916C6.70825 30.2916 5.52075 28.5277 4.64575 26.4999C3.77075 24.4721 3.33325 22.3055 3.33325 19.9999C3.33325 17.6944 3.77075 15.5277 4.64575 13.4999C5.52075 11.4721 6.70825 9.70825 8.20825 8.20825C9.70825 6.70825 11.4721 5.52075 13.4999 4.64575C15.5277 3.77075 17.6944 3.33325 19.9999 3.33325C22.3055 3.33325 24.4721 3.77075 26.4999 4.64575C28.5277 5.52075 30.2916 6.70825 31.7916 8.20825C33.2916 9.70825 34.4791 11.4721 35.3541 13.4999C36.2291 15.5277 36.6666 17.6944 36.6666 19.9999C36.6666 22.3055 36.2291 24.4721 35.3541 26.4999C34.4791 28.5277 33.2916 30.2916 31.7916 31.7916C30.2916 33.2916 28.5277 34.4791 26.4999 35.3541C24.4721 36.2291 22.3055 36.6666 19.9999 36.6666Z" fill="white"/>
</g>
</g>
</svg>
