<svg width="50" height="51" viewBox="0 0 50 51" fill="none" xmlns="http://www.w3.org/2000/svg">
<g id="clear_day">
<mask id="mask0_1688_2823" style="mask-type:alpha" maskUnits="userSpaceOnUse" x="0" y="0" width="50" height="51">
<rect id="Bounding box" y="0.5" width="50" height="50" fill="#FFFFFF"/>
</mask>
<g mask="url(#mask0_1688_2823)">
<path id="clear_day_2" d="M24.9994 11.2471C24.5952 11.2471 24.2522 11.106 23.9704 10.8239C23.6887 10.5418 23.5478 10.1987 23.5478 9.79478V5.22743C23.5478 4.82347 23.6889 4.47877 23.9712 4.19331C24.2534 3.90786 24.5966 3.76514 25.0008 3.76514C25.405 3.76514 25.7496 3.90786 26.0347 4.19331C26.3198 4.47877 26.4624 4.82347 26.4624 5.22743V9.79478C26.4624 10.1987 26.3196 10.5418 26.034 10.8239C25.7484 11.106 25.4036 11.2471 24.9994 11.2471ZM35.0762 15.4237C34.7944 15.1526 34.6595 14.8191 34.6715 14.4232C34.6836 14.0272 34.8251 13.685 35.0962 13.3965L38.2733 10.1473C38.5694 9.84149 38.9135 9.68858 39.3056 9.68858C39.6978 9.68858 40.0482 9.84293 40.357 10.1516C40.6492 10.4332 40.7926 10.7696 40.7873 11.1609C40.7819 11.5522 40.637 11.8901 40.3526 12.1745L37.1034 15.4237C36.8189 15.7082 36.4811 15.8504 36.0898 15.8504C35.6985 15.8504 35.3606 15.7082 35.0762 15.4237ZM40.7051 26.9521C40.3012 26.9521 39.9581 26.811 39.676 26.5287C39.3939 26.2465 39.2528 25.9033 39.2528 25.4992C39.2528 25.0949 39.3939 24.7503 39.676 24.4652C39.9581 24.1801 40.3012 24.0375 40.7051 24.0375H45.2725C45.6764 24.0375 46.0211 24.1803 46.3066 24.4659C46.592 24.7515 46.7348 25.0963 46.7348 25.5005C46.7348 25.9047 46.592 26.2477 46.3066 26.5295C46.0211 26.8112 45.6764 26.9521 45.2725 26.9521H40.7051ZM24.9994 47.2245C24.5952 47.2245 24.2522 47.0835 23.9704 46.8013C23.6887 46.5192 23.5478 46.1762 23.5478 45.7722V41.2249C23.5478 40.8209 23.6889 40.4762 23.9712 40.1908C24.2534 39.9054 24.5966 39.7626 25.0008 39.7626C25.405 39.7626 25.7496 39.9054 26.0347 40.1908C26.3198 40.4762 26.4624 40.8209 26.4624 41.2249V45.7722C26.4624 46.1762 26.3196 46.5192 26.034 46.8014C25.7484 47.0835 25.4036 47.2245 24.9994 47.2245ZM12.9168 15.4237L9.64758 12.2266C9.34175 11.9425 9.18883 11.5987 9.18883 11.1952C9.18883 10.7918 9.34175 10.4425 9.64758 10.1473C9.94272 9.87622 10.2877 9.74066 10.6825 9.74066C11.0774 9.74066 11.4081 9.87622 11.6748 10.1473L14.944 13.4165C15.2151 13.6832 15.355 14.0166 15.3637 14.4168C15.3724 14.817 15.2425 15.1526 14.9741 15.4237C14.673 15.7055 14.3313 15.8464 13.949 15.8464C13.5667 15.8464 13.2226 15.7055 12.9168 15.4237ZM38.2934 40.8684L35.0962 37.6192C34.8251 37.32 34.6862 36.9725 34.6796 36.5765C34.6729 36.1806 34.8038 35.847 35.0722 35.5759C35.3406 35.3048 35.6741 35.1693 36.0727 35.1693C36.4714 35.1693 36.8149 35.3115 37.1034 35.596L40.3786 38.7931C40.6711 39.0642 40.8103 39.3987 40.7963 39.7967C40.7823 40.1946 40.6323 40.5465 40.3465 40.8523C40.0621 41.1582 39.7155 41.3138 39.3066 41.3191C38.8977 41.3244 38.56 41.1742 38.2934 40.8684ZM4.72768 26.9521C4.32372 26.9521 3.98067 26.811 3.69852 26.5287C3.41643 26.2465 3.27539 25.9033 3.27539 25.4992C3.27539 25.0949 3.41645 24.7503 3.69857 24.4652C3.98069 24.1801 4.32372 24.0375 4.72768 24.0375H9.29503C9.69899 24.0375 10.0437 24.1803 10.3291 24.4659C10.6146 24.7515 10.7573 25.0963 10.7573 25.5005C10.7573 25.9047 10.6146 26.2477 10.3291 26.5295C10.0437 26.8112 9.69899 26.9521 9.29503 26.9521H4.72768ZM9.66758 40.8684C9.38581 40.5732 9.24159 40.2294 9.23492 39.8368C9.22826 39.4441 9.36581 39.1069 9.64758 38.8251L12.8767 35.596C13.1612 35.3115 13.4981 35.1693 13.8874 35.1693C14.2766 35.1693 14.6155 35.3101 14.9039 35.5916C15.2098 35.9003 15.3627 36.2483 15.3627 36.6356C15.3627 37.0229 15.2098 37.3694 14.9039 37.6752L11.7269 40.8523C11.421 41.1582 11.068 41.3111 10.6678 41.3111C10.2677 41.3111 9.93425 41.1635 9.66758 40.8684ZM25.0048 36.8479C21.8513 36.8479 19.1708 35.7457 16.9633 33.5413C14.7558 31.337 13.652 28.658 13.652 25.5046C13.652 22.3511 14.7542 19.6689 16.9586 17.458C19.1629 15.2471 21.8419 14.1417 24.9953 14.1417C28.1488 14.1417 30.831 15.2456 33.0419 17.4533C35.2528 19.661 36.3582 22.3416 36.3582 25.4951C36.3582 28.6486 35.2543 31.3291 33.0466 33.5367C30.8389 35.7442 28.1583 36.8479 25.0048 36.8479Z" fill="white"/>
</g>
</g>
</svg>
