<svg width="20" height="20" viewBox="0 0 20 20" fill="none" xmlns="http://www.w3.org/2000/svg">
<g id="close">
<mask id="mask0_920_1959" style="mask-type:alpha" maskUnits="userSpaceOnUse" x="0" y="0" width="20" height="20">
<rect id="Bounding box" width="20" height="20" fill="#FFFFFF"/>
</mask>
<g mask="url(#mask0_920_1959)">
<path id="close_2" d="M10.0002 11.1667L5.91683 15.25C5.76405 15.4028 5.56961 15.4792 5.3335 15.4792C5.09739 15.4792 4.90294 15.4028 4.75016 15.25C4.59738 15.0973 4.521 14.9028 4.521 14.6667C4.521 14.4306 4.59738 14.2362 4.75016 14.0834L8.8335 10L4.75016 5.91671C4.59738 5.76393 4.521 5.56949 4.521 5.33337C4.521 5.09726 4.59738 4.90282 4.75016 4.75004C4.90294 4.59726 5.09739 4.52087 5.3335 4.52087C5.56961 4.52087 5.76405 4.59726 5.91683 4.75004L10.0002 8.83337L14.0835 4.75004C14.2363 4.59726 14.4307 4.52087 14.6668 4.52087C14.9029 4.52087 15.0974 4.59726 15.2502 4.75004C15.4029 4.90282 15.4793 5.09726 15.4793 5.33337C15.4793 5.56949 15.4029 5.76393 15.2502 5.91671L11.1668 10L15.2502 14.0834C15.4029 14.2362 15.4793 14.4306 15.4793 14.6667C15.4793 14.9028 15.4029 15.0973 15.2502 15.25C15.0974 15.4028 14.9029 15.4792 14.6668 15.4792C14.4307 15.4792 14.2363 15.4028 14.0835 15.25L10.0002 11.1667Z" fill="white"/>
</g>
</g>
</svg>
