<svg width="50" height="51" viewBox="0 0 50 51" fill="none" xmlns="http://www.w3.org/2000/svg">
<g id="deployed_code">
<mask id="mask0_1305_4982" style="mask-type:alpha" maskUnits="userSpaceOnUse" x="0" y="0" width="50" height="51">
<rect id="Bounding box" y="0.5" width="50" height="50" fill="#FFFFFF"/>
</mask>
<g mask="url(#mask0_1305_4982)">
<path id="deployed_code_2" d="M23.5473 41.117V26.3713L10.5845 18.8573V33.2423C10.5845 33.3492 10.6112 33.4494 10.6646 33.5429C10.718 33.6364 10.7982 33.7165 10.905 33.7833L23.5473 41.117ZM26.4618 41.117L39.0941 33.7833C39.2009 33.7165 39.2811 33.6364 39.3345 33.5429C39.3879 33.4494 39.4146 33.3492 39.4146 33.2423V18.8733L26.4618 26.3554V41.117ZM24.9996 23.8734L37.8061 16.4535L25.3251 9.22395C25.2182 9.15718 25.1114 9.12379 25.0046 9.12379C24.8977 9.12379 24.7909 9.15718 24.684 9.22395L12.203 16.4535L24.9996 23.8734ZM9.45273 36.3593C8.88117 36.0388 8.44114 35.6084 8.13263 35.0683C7.82416 34.5281 7.66992 33.9354 7.66992 33.2904V17.6995C7.66992 17.0628 7.82416 16.4696 8.13263 15.9199C8.44114 15.3702 8.88117 14.9351 9.45273 14.6146L23.2267 6.69999C23.7912 6.37947 24.382 6.21921 24.9992 6.21921C25.6164 6.21921 26.2108 6.37947 26.7824 6.69999L40.5564 14.6146C41.1213 14.9351 41.558 15.3702 41.8665 15.9199C42.175 16.4696 42.3292 17.0628 42.3292 17.6995V33.2904C42.3292 33.9354 42.175 34.5324 41.8665 35.0813C41.558 35.6301 41.1213 36.0615 40.5564 36.3754L26.7824 44.3C26.2108 44.6205 25.6164 44.7808 24.9992 44.7808C24.382 44.7808 23.7912 44.6205 23.2267 44.3L9.45273 36.3593Z" fill="white"/>
</g>
</g>
</svg>
