<svg width="50" height="51" viewBox="0 0 50 51" fill="none" xmlns="http://www.w3.org/2000/svg">
<g id="deployed_code_update">
<mask id="mask0_1305_4987" style="mask-type:alpha" maskUnits="userSpaceOnUse" x="0" y="0" width="50" height="51">
<rect id="Bounding box" y="0.5" width="50" height="50" fill="#D9D9D9"/>
</mask>
<g mask="url(#mask0_1305_4987)">
<path id="deployed_code_update_2" d="M23.2267 6.69999C23.787 6.37947 24.3768 6.21921 24.9961 6.21921C25.6154 6.21921 26.2108 6.37947 26.7824 6.69999L40.5564 14.6146C41.1246 14.9408 41.5622 15.3773 41.869 15.9242C42.1758 16.471 42.3292 17.066 42.3292 17.7091V24.6105C41.8792 24.3207 41.4138 24.0593 40.933 23.8262C40.4523 23.5932 39.9461 23.3956 39.4146 23.2333V18.8733L32.4054 22.9238C30.5197 23.3165 28.811 24.063 27.2792 25.1634C25.7474 26.2638 24.5034 27.6133 23.5473 29.2119V26.3713L10.5845 18.8573V33.2423C10.5845 33.3492 10.6112 33.4494 10.6646 33.5429C10.718 33.6364 10.7982 33.7165 10.905 33.7833L22.0268 40.2496C22.2325 41.0242 22.5116 41.7617 22.8641 42.4621C23.2167 43.1625 23.6374 43.8273 24.1262 44.4562C23.9539 44.4803 23.7896 44.4773 23.6334 44.4472C23.4771 44.4172 23.3215 44.3548 23.1666 44.2599L9.45273 36.3593C8.87784 36.0331 8.43697 35.6029 8.13013 35.0685C7.82332 34.5341 7.66992 33.9415 7.66992 33.2904V17.6995C7.66992 17.0628 7.82332 16.471 8.13013 15.9242C8.43697 15.3773 8.87784 14.9408 9.45273 14.6146L23.2267 6.69999ZM24.684 9.22395L12.203 16.4535L24.9996 23.8734L37.8061 16.4535L25.3251 9.22395C25.2182 9.15718 25.1114 9.12379 25.0046 9.12379C24.8977 9.12379 24.7909 9.15718 24.684 9.22395ZM34.3946 38.7532L31.5074 35.8724C31.3422 35.7071 31.1369 35.621 30.8914 35.6144C30.6458 35.6077 30.4338 35.6937 30.2553 35.8724C30.0768 36.0512 29.9876 36.2601 29.9876 36.4993C29.9876 36.7385 30.0759 36.9467 30.2526 37.1238L34.6904 41.5183C34.8703 41.6954 35.0799 41.784 35.3193 41.784C35.5588 41.784 35.7667 41.6951 35.943 41.5175L40.3254 37.1284C40.4901 36.9635 40.5758 36.7583 40.5825 36.513C40.5891 36.2677 40.5031 36.0528 40.3243 35.8685C40.1455 35.6909 39.9365 35.6021 39.6972 35.6021C39.4579 35.6021 39.2466 35.6932 39.0632 35.8754L36.1954 38.7532V31.6269C36.1954 31.3924 36.1049 31.1857 35.9238 31.0068C35.7428 30.8278 35.5315 30.7384 35.29 30.7384C35.0512 30.7384 34.8423 30.8296 34.6632 31.012C34.4841 31.1944 34.3946 31.4017 34.3946 31.6338V38.7532ZM35.2928 45.5219C32.7736 45.5219 30.63 44.6388 28.8618 42.8725C27.0936 41.1062 26.2096 38.9635 26.2096 36.4443C26.2096 33.9251 27.0927 31.7814 28.859 30.0132C30.6252 28.2451 32.768 27.361 35.2872 27.361C37.8064 27.361 39.9501 28.2441 41.7183 30.0104C43.4864 31.7767 44.3705 33.9194 44.3705 36.4386C44.3705 38.9579 43.4874 41.1016 41.7211 42.8697C39.9548 44.6378 37.8121 45.5219 35.2928 45.5219Z" fill="white"/>
</g>
</g>
</svg>
