<svg width="20" height="20" viewBox="0 0 20 20" fill="none" xmlns="http://www.w3.org/2000/svg">
<g id="drag_handle">
<mask id="mask0_920_2019" style="mask-type:alpha" maskUnits="userSpaceOnUse" x="0" y="0" width="20" height="20">
<rect id="Bounding box" width="20" height="20" fill="#FFFFFF"/>
</mask>
<g mask="url(#mask0_920_2019)">
<path id="drag_handle_2" d="M4.16683 9.16667C3.93072 9.16667 3.7328 9.08681 3.57308 8.92708C3.41336 8.76736 3.3335 8.56944 3.3335 8.33333C3.3335 8.09722 3.41336 7.89931 3.57308 7.73958C3.7328 7.57986 3.93072 7.5 4.16683 7.5H15.8335C16.0696 7.5 16.2675 7.57986 16.4272 7.73958C16.587 7.89931 16.6668 8.09722 16.6668 8.33333C16.6668 8.56944 16.587 8.76736 16.4272 8.92708C16.2675 9.08681 16.0696 9.16667 15.8335 9.16667H4.16683ZM4.16683 12.5C3.93072 12.5 3.7328 12.4201 3.57308 12.2604C3.41336 12.1007 3.3335 11.9028 3.3335 11.6667C3.3335 11.4306 3.41336 11.2326 3.57308 11.0729C3.7328 10.9132 3.93072 10.8333 4.16683 10.8333H15.8335C16.0696 10.8333 16.2675 10.9132 16.4272 11.0729C16.587 11.2326 16.6668 11.4306 16.6668 11.6667C16.6668 11.9028 16.587 12.1007 16.4272 12.2604C16.2675 12.4201 16.0696 12.5 15.8335 12.5H4.16683Z" fill="white"/>
</g>
</g>
</svg>
