<svg width="50" height="50" viewBox="0 0 50 50" fill="none" xmlns="http://www.w3.org/2000/svg">
<g id="group">
<mask id="mask0_1684_1689" style="mask-type:alpha" maskUnits="userSpaceOnUse" x="0" y="0" width="50" height="50">
<rect id="Bounding box" width="50" height="50" fill="#FFFFFF"/>
</mask>
<g mask="url(#mask0_1684_1689)">
<path id="group_2" d="M6.1181 39.6771C5.61553 39.6771 5.19709 39.5099 4.86279 39.1756C4.52848 38.8413 4.36133 38.4228 4.36133 37.9202V35.2931C4.36133 34.2575 4.62723 33.3344 5.15904 32.5237C5.69088 31.713 6.41456 31.0799 7.33008 30.6244C9.27449 29.6778 11.2266 28.9464 13.1864 28.4302C15.1462 27.914 17.2919 27.656 19.6237 27.656C21.9554 27.656 24.0968 27.914 26.0479 28.4302C27.9991 28.9464 29.9514 29.6778 31.9049 30.6246C32.8186 31.0827 33.5412 31.7169 34.0727 32.5271C34.6042 33.3373 34.87 34.2599 34.87 35.2949V37.9202C34.87 38.4228 34.7028 38.8413 34.3686 39.1756C34.0343 39.5099 33.6158 39.6771 33.1132 39.6771H6.1181ZM38.0591 39.6771C38.3361 39.5152 38.5585 39.2784 38.7265 38.9667C38.8946 38.6551 38.9786 38.2869 38.9786 37.8622V35.0838C38.9786 33.7336 38.6447 32.4627 37.9771 31.2711C37.3094 30.0794 36.3779 29.0594 35.1826 28.2109C36.506 28.4259 37.7645 28.7397 38.9579 29.1523C40.1514 29.5648 41.2995 30.0617 42.402 30.6427C43.433 31.1849 44.2319 31.837 44.7988 32.599C45.3657 33.3611 45.6491 34.1904 45.6491 35.0871V37.9202C45.6491 38.4228 45.4808 38.8413 45.1441 39.1756C44.8074 39.5099 44.3901 39.6771 43.8924 39.6771H38.0591ZM19.6237 24.4007C17.6714 24.4007 16.0101 23.7155 14.6399 22.3453C13.2696 20.975 12.5845 19.3137 12.5845 17.3615C12.5845 15.4092 13.2696 13.7479 14.6399 12.3777C16.0101 11.0074 17.6714 10.3223 19.6237 10.3223C21.5759 10.3223 23.2372 11.0074 24.6075 12.3777C25.9777 13.7479 26.6628 15.4092 26.6628 17.3615C26.6628 19.3137 25.9777 20.975 24.6075 22.3453C23.2372 23.7155 21.5759 24.4007 19.6237 24.4007ZM36.855 17.3391C36.855 19.276 36.1699 20.9327 34.7997 22.3095C33.4294 23.6862 31.7681 24.3746 29.8159 24.3746C29.6195 24.3746 29.3589 24.3506 29.0341 24.3026C28.7092 24.2546 28.4416 24.2019 28.2314 24.1442C29.0429 23.1953 29.6648 22.1412 30.0971 20.9819C30.5293 19.8226 30.7454 18.6107 30.7454 17.346C30.7454 16.0859 30.523 14.8774 30.0784 13.7204C29.6336 12.5634 29.018 11.5021 28.2314 10.5366C28.4918 10.4404 28.7575 10.3807 29.0286 10.3573C29.2997 10.334 29.5621 10.3223 29.8159 10.3223C31.7681 10.3223 33.4294 11.0093 34.7997 12.3835C36.1699 13.7576 36.855 15.4095 36.855 17.3391ZM7.27591 36.7625H31.9554V35.3007C31.9554 34.857 31.8466 34.4646 31.6289 34.1233C31.4112 33.7821 31.0606 33.4812 30.5772 33.2208C28.8723 32.3474 27.131 31.6873 25.3532 31.2406C23.5753 30.7939 21.667 30.5706 19.6281 30.5706C17.5833 30.5706 15.6692 30.7939 13.8856 31.2406C12.102 31.6873 10.3582 32.3474 8.65414 33.2208C8.164 33.4812 7.81176 33.7827 7.59742 34.1252C7.38308 34.4677 7.27591 34.8587 7.27591 35.2982V36.7625ZM19.6204 21.4861C20.7577 21.4861 21.73 21.0835 22.5373 20.2784C23.3446 19.4732 23.7483 18.502 23.7483 17.3647C23.7483 16.2274 23.3457 15.2551 22.5405 14.4478C21.7354 13.6405 20.7642 13.2369 19.6269 13.2369C18.4896 13.2369 17.5173 13.6394 16.71 14.4446C15.9027 15.2497 15.4991 16.2209 15.4991 17.3583C15.4991 18.4955 15.9017 19.4678 16.7068 20.2751C17.5119 21.0824 18.4832 21.4861 19.6204 21.4861Z" fill="white"/>
</g>
</g>
</svg>
