<svg width="30" height="30" viewBox="0 0 30 30" fill="none" xmlns="http://www.w3.org/2000/svg">
<g id="motion_mode">
<mask id="mask0_1688_3221" style="mask-type:alpha" maskUnits="userSpaceOnUse" x="0" y="0" width="30" height="30">
<rect id="Bounding box" width="30" height="30" fill="#D9D9D9"/>
</mask>
<g mask="url(#mask0_1688_3221)">
<path id="motion_mode_2" d="M6.25 6.0625V23.9375C5.89583 23.5833 5.5625 23.2083 5.25 22.8125C4.9375 22.4167 4.64583 22.0104 4.375 21.5938V8.40625C4.64583 7.98958 4.9375 7.58333 5.25 7.1875C5.5625 6.79167 5.89583 6.41667 6.25 6.0625ZM11.25 3.0625V26.9375C10.8125 26.7917 10.3854 26.6302 9.96875 26.4531C9.55208 26.276 9.14583 26.0729 8.75 25.8438V4.15625C9.14583 3.92708 9.55208 3.72396 9.96875 3.54688C10.3854 3.36979 10.8125 3.20833 11.25 3.0625ZM20 26.4688V3.53125C22.2083 4.51042 24.0104 6.02083 25.4062 8.0625C26.8021 10.1042 27.5 12.4167 27.5 15C27.5 17.5833 26.8021 19.8958 25.4062 21.9375C24.0104 23.9792 22.2083 25.4896 20 26.4688ZM15 27.5C14.7917 27.5 14.5833 27.4948 14.375 27.4844C14.1667 27.474 13.9583 27.4583 13.75 27.4375V2.5625C13.9583 2.54167 14.1667 2.52604 14.375 2.51562C14.5833 2.50521 14.7917 2.5 15 2.5C15.4167 2.5 15.8333 2.52083 16.25 2.5625C16.6667 2.60417 17.0833 2.66667 17.5 2.75V27.25C17.0833 27.3333 16.6667 27.3958 16.25 27.4375C15.8333 27.4792 15.4167 27.5 15 27.5Z" fill="#4F4F4F"/>
</g>
</g>
</svg>
