<svg width="30" height="30" viewBox="0 0 30 30" fill="none" xmlns="http://www.w3.org/2000/svg">
<g id="new_releases">
<mask id="mask0_2047_117" style="mask-type:alpha" maskUnits="userSpaceOnUse" x="0" y="0" width="30" height="30">
<rect id="Bounding box" width="30" height="30" fill="#FFFFFF"/>
</mask>
<g mask="url(#mask0_2047_117)">
<path id="new_releases_2" d="M10.1875 27.1875L8.375 24.125L4.9375 23.375C4.625 23.3125 4.375 23.151 4.1875 22.8906C4 22.6302 3.92708 22.3437 3.96875 22.0312L4.3125 18.5L1.96875 15.8125C1.76042 15.5833 1.65625 15.3125 1.65625 15C1.65625 14.6875 1.76042 14.4166 1.96875 14.1875L4.3125 11.5L3.96875 7.96872C3.92708 7.65622 4 7.36976 4.1875 7.10934C4.375 6.84892 4.625 6.68747 4.9375 6.62497L8.375 5.87497L10.1875 2.81247C10.3542 2.54163 10.5833 2.35934 10.875 2.26559C11.1667 2.17184 11.4583 2.18747 11.75 2.31247L15 3.68747L18.25 2.31247C18.5417 2.18747 18.8333 2.17184 19.125 2.26559C19.4167 2.35934 19.6458 2.54163 19.8125 2.81247L21.625 5.87497L25.0625 6.62497C25.375 6.68747 25.625 6.84892 25.8125 7.10934C26 7.36976 26.0729 7.65622 26.0312 7.96872L25.6875 11.5L28.0312 14.1875C28.2396 14.4166 28.3438 14.6875 28.3438 15C28.3438 15.3125 28.2396 15.5833 28.0312 15.8125L25.6875 18.5L26.0312 22.0312C26.0729 22.3437 26 22.6302 25.8125 22.8906C25.625 23.151 25.375 23.3125 25.0625 23.375L21.625 24.125L19.8125 27.1875C19.6458 27.4583 19.4167 27.6406 19.125 27.7343C18.8333 27.8281 18.5417 27.8125 18.25 27.6875L15 26.3125L11.75 27.6875C11.4583 27.8125 11.1667 27.8281 10.875 27.7343C10.5833 27.6406 10.3542 27.4583 10.1875 27.1875ZM13.6875 15.875L11.875 14.0937C11.6458 13.8645 11.3594 13.75 11.0156 13.75C10.6719 13.75 10.375 13.875 10.125 14.125C9.89583 14.3541 9.78125 14.6458 9.78125 15C9.78125 15.3541 9.89583 15.6458 10.125 15.875L12.8125 18.5625C13.0625 18.8125 13.3542 18.9375 13.6875 18.9375C14.0208 18.9375 14.3125 18.8125 14.5625 18.5625L19.875 13.25C20.125 13 20.2448 12.7083 20.2344 12.375C20.224 12.0416 20.1042 11.75 19.875 11.5C19.625 11.25 19.3281 11.1198 18.9844 11.1093C18.6406 11.0989 18.3438 11.2187 18.0938 11.4687L13.6875 15.875Z" fill="#FFFFFF"/>
</g>
</g>
</svg>
