<svg width="30" height="30" viewBox="0 0 30 30" fill="none" xmlns="http://www.w3.org/2000/svg">
<g id="open_jam">
<mask id="mask0_1754_1197" style="mask-type:alpha" maskUnits="userSpaceOnUse" x="0" y="0" width="30" height="30">
<rect id="Bounding box" width="30" height="30" fill="#FFFFFF"/>
</mask>
<g mask="url(#mask0_1754_1197)">
<path id="open_jam_2" d="M8.75 26.25C8.39583 26.25 8.09896 26.1302 7.85938 25.8906C7.61979 25.651 7.5 25.3542 7.5 25C7.5 24.6458 7.61979 24.349 7.85938 24.1094C8.09896 23.8698 8.39583 23.75 8.75 23.75H16.25V14.75L17.375 15.875C17.6042 16.1042 17.8958 16.2188 18.25 16.2188C18.6042 16.2188 18.8958 16.1042 19.125 15.875C19.3542 15.6458 19.4688 15.3542 19.4688 15C19.4688 14.6458 19.3542 14.3542 19.125 14.125L15.875 10.875C15.625 10.625 15.3333 10.5 15 10.5C14.6667 10.5 14.375 10.625 14.125 10.875L10.875 14.125C10.6458 14.3542 10.5312 14.6458 10.5312 15C10.5312 15.3542 10.6458 15.6458 10.875 15.875C11.1042 16.1042 11.3958 16.2188 11.75 16.2188C12.1042 16.2188 12.3958 16.1042 12.625 15.875L13.75 14.75V20H5C4.3125 20 3.72396 19.7552 3.23438 19.2656C2.74479 18.776 2.5 18.1875 2.5 17.5V6.25C2.5 5.5625 2.74479 4.97396 3.23438 4.48438C3.72396 3.99479 4.3125 3.75 5 3.75H25C25.6875 3.75 26.276 3.99479 26.7656 4.48438C27.2552 4.97396 27.5 5.5625 27.5 6.25V17.5C27.5 18.1875 27.2552 18.776 26.7656 19.2656C26.276 19.7552 25.6875 20 25 20H18.75V23.75H21.25C21.6042 23.75 21.901 23.8698 22.1406 24.1094C22.3802 24.349 22.5 24.6458 22.5 25C22.5 25.3542 22.3802 25.651 22.1406 25.8906C21.901 26.1302 21.6042 26.25 21.25 26.25H8.75Z" fill="white"/>
</g>
</g>
</svg>
