<svg width="50" height="50" viewBox="0 0 50 50" fill="none" xmlns="http://www.w3.org/2000/svg">
<g id="person">
<mask id="mask0_1723_1027" style="mask-type:alpha" maskUnits="userSpaceOnUse" x="0" y="0" width="50" height="50">
<rect id="Bounding box" width="50" height="50" fill="#FFFFFF"/>
</mask>
<g mask="url(#mask0_1723_1027)">
<path id="person_2" d="M25.0002 24.401C23.0404 24.401 21.3703 23.7108 19.9897 22.3302C18.6092 20.9497 17.919 19.2796 17.919 17.3198C17.919 15.36 18.6092 13.6898 19.9897 12.3093C21.3703 10.9288 23.0404 10.2385 25.0002 10.2385C26.96 10.2385 28.6302 10.9288 30.0107 12.3093C31.3912 13.6898 32.0815 15.36 32.0815 17.3198C32.0815 19.2796 31.3912 20.9497 30.0107 22.3302C28.6302 23.7108 26.96 24.401 25.0002 24.401ZM37.2919 39.6774H12.7085C11.8877 39.6774 11.19 39.3902 10.6156 38.8158C10.0411 38.2413 9.75391 37.5436 9.75391 36.7227V35.2957C9.75391 34.3033 10.0196 33.3907 10.551 32.5581C11.0824 31.7254 11.8059 31.0821 12.7214 30.6282C14.7566 29.6464 16.7974 28.9057 18.8437 28.406C20.8901 27.9062 22.9424 27.6563 25.0005 27.6563C27.0587 27.6563 29.1116 27.9061 31.1593 28.4055C33.2071 28.905 35.2478 29.6457 37.2814 30.6275C38.1962 31.0815 38.9191 31.7248 39.4501 32.5576C39.981 33.3903 40.2465 34.303 40.2465 35.2956V36.7227C40.2465 37.5436 39.9593 38.2413 39.3848 38.8158C38.8104 39.3902 38.1127 39.6774 37.2919 39.6774ZM12.6685 36.7629H37.3319V35.3011C37.3319 34.8708 37.2097 34.475 36.9654 34.1137C36.721 33.7524 36.3837 33.4549 35.9537 33.2212C34.1678 32.3478 32.3608 31.6877 30.5328 31.241C28.7048 30.7943 26.8602 30.5709 24.9989 30.5709C23.1255 30.5709 21.2779 30.7943 19.4559 31.241C17.6339 31.6877 15.8342 32.3478 14.0567 33.2212C13.62 33.4549 13.2795 33.753 13.0351 34.1156C12.7907 34.4781 12.6685 34.8725 12.6685 35.2985V36.7629ZM25.0002 21.4864C26.146 21.4864 27.1269 21.0785 27.9429 20.2625C28.7589 19.4465 29.1669 18.4656 29.1669 17.3198C29.1669 16.1739 28.7589 15.193 27.9429 14.3771C27.1269 13.5611 26.146 13.1531 25.0002 13.1531C23.8544 13.1531 22.8735 13.5611 22.0575 14.3771C21.2415 15.193 20.8335 16.1739 20.8335 17.3198C20.8335 18.4656 21.2415 19.4465 22.0575 20.2625C22.8735 21.0785 23.8544 21.4864 25.0002 21.4864Z" fill="white"/>
</g>
</g>
</svg>
