<svg width="500" height="500" viewBox="0 0 500 500" fill="none" xmlns="http://www.w3.org/2000/svg">
<rect width="500" height="500" rx="120" fill="#0E0E0E"/>
<path d="M120 120H380V185H185V315H217.5V380H120V120Z" fill="white"/>
<path d="M282.5 217.5H315V237H282.5V217.5Z" fill="white"/>
<path d="M360.5 282.5H380V315H360.5V282.5Z" fill="white"/>
<path d="M360.5 217.5H380V263H360.5V217.5Z" fill="white"/>
<path d="M315 237H334.5V282.5H315V237Z" fill="white"/>
<path d="M315 217.5H360.5V237H315V217.5Z" fill="white"/>
<path d="M334.5 263H380V282.5H334.5V263Z" fill="white"/>
<path d="M263 217.5H282.5V263H263V217.5Z" fill="white"/>
<path d="M217.5 237H237V282.5H217.5V237Z" fill="white"/>
<path d="M217.5 217.5H263V237H217.5V217.5Z" fill="white"/>
<path d="M237 263H282.5V282.5H237V263Z" fill="white"/>
<path d="M360.5 315H380V360.5H360.5V315Z" fill="white"/>
<path d="M315 334.5H334.5V380H315V334.5Z" fill="white"/>
<path d="M315 315H360.5V334.5H315V315Z" fill="white"/>
<path d="M334.5 360.5H380V380H334.5V360.5Z" fill="white"/>
<path d="M263 315H282.5V360.5H263V315Z" fill="white"/>
<path d="M217.5 334.5H237V380H217.5V334.5Z" fill="white"/>
<path d="M217.5 315H263V334.5H217.5V315Z" fill="white"/>
<path d="M237 360.5H282.5V380H237V360.5Z" fill="white"/>
</svg>
