<svg width="40" height="40" viewBox="0 0 40 40" fill="none" xmlns="http://www.w3.org/2000/svg">
<g id="Vector">
<path d="M0 0H40V10H10V30H15V40H0V0Z" fill="white"/>
<path d="M25 15H30V18H25V15Z" fill="white"/>
<path d="M37 25H40V30H37V25Z" fill="white"/>
<path d="M37 15H40V22H37V15Z" fill="white"/>
<path d="M30 18H33V25H30V18Z" fill="white"/>
<path d="M30 15H37V18H30V15Z" fill="white"/>
<path d="M33 22H40V25H33V22Z" fill="white"/>
<path d="M22 15H25V22H22V15Z" fill="white"/>
<path d="M15 18H18V25H15V18Z" fill="white"/>
<path d="M15 15H22V18H15V15Z" fill="white"/>
<path d="M18 22H25V25H18V22Z" fill="white"/>
<path d="M37 30H40V37H37V30Z" fill="white"/>
<path d="M30 33H33V40H30V33Z" fill="white"/>
<path d="M30 30H37V33H30V30Z" fill="white"/>
<path d="M33 37H40V40H33V37Z" fill="white"/>
<path d="M22 30H25V37H22V30Z" fill="white"/>
<path d="M15 33H18V40H15V33Z" fill="white"/>
<path d="M15 30H22V33H15V30Z" fill="white"/>
<path d="M18 37H25V40H18V37Z" fill="white"/>
</g>
</svg>
